<svg width="37" height="50" viewBox="0 0 37 50" fill="none" xmlns="http://www.w3.org/2000/svg">
<path id="Vector" d="M30.0625 32.9495V48.8433C30.0625 49.4819 29.5447 50 28.9062 50C28.6967 50 28.4912 49.9429 28.3115 49.8351L18.5 43.9469L8.68864 49.8351C8.14106 50.1635 7.43083 49.9859 7.10227 49.4384C6.99446 49.2585 6.9375 49.0528 6.9375 48.8433V32.9495C2.7081 29.5584 0 24.3475 0 18.504C0 8.2845 8.28273 0 18.5 0C28.7173 0 37 8.2845 37 18.504C37 24.3475 34.2918 29.5584 30.0625 32.9495ZM18.5 32.3819C26.1629 32.3819 32.375 26.1685 32.375 18.504C32.375 10.8394 26.1629 4.62599 18.5 4.62599C10.837 4.62599 4.625 10.8394 4.625 18.504C4.625 26.1685 10.837 32.3819 18.5 32.3819ZM18.5 27.7559C13.3914 27.7559 9.25 23.6136 9.25 18.504C9.25 13.3942 13.3914 9.25198 18.5 9.25198C23.6085 9.25198 27.75 13.3942 27.75 18.504C27.75 23.6136 23.6085 27.7559 18.5 27.7559Z" fill="#111111"/>
</svg>
